<svg width="33" height="19" viewBox="0 0 33 19" fill="none" xmlns="http://www.w3.org/2000/svg">
<path d="M1.25 7.95493C0.559645 7.95493 7.15256e-07 8.51458 0 9.20493C-7.15256e-07 9.89529 0.559643 10.4549 1.25 10.4549L1.25 9.20493L1.25 7.95493ZM32.1339 10.0888C32.622 9.60069 32.622 8.80923 32.1339 8.32108L24.1789 0.36612C23.6908 -0.122036 22.8993 -0.122036 22.4112 0.366118C21.923 0.854274 21.923 1.64573 22.4112 2.13389L29.4822 9.20496L22.4112 16.276C21.923 16.7642 21.923 17.5556 22.4112 18.0438C22.8993 18.5319 23.6908 18.5319 24.1789 18.0438L32.1339 10.0888ZM1.25 9.20493L1.25 10.4549L31.25 10.455L31.25 9.20496L31.25 7.95496L1.25 7.95493L1.25 9.20493Z" fill="white"/>
</svg>
